<svg
  xmlns="http://www.w3.org/2000/svg"
  version="1.1"
  xmlns:xlink="http://www.w3.org/1999/xlink"
  xmlns:svgjs="http://svgjs.dev/svgjs"
  viewBox="0 0 1422 800"
><g
    shape-rendering="crispEdges"
    strokeLinejoin="round"
    fill="none"
    strokeWidth="1"
    stroke="hsl(220, 62%, 45%)"
  ><polygon points="1422,100 1422,0 1244.25,0" /><polygon
      points="1244.25,100 1066.5,100 1066.5,0"
    /><polygon points="1244.25,200 1244.25,100 1066.5,100" /><polygon
      points="1422,200 1422,100 1244.25,100"
    /><polygon points="1066.5,100 1066.5,0 888.75,0" /><polygon
      points="888.75,0 888.75,100 711,0"
    /><polygon points="888.75,200 888.75,100 711,200" /><polygon
      points="1066.5,200 888.75,200 1066.5,100"
    /><polygon points="1066.5,300 1066.5,200 888.75,300" /><polygon
      points="888.75,200 888.75,250 799.875,250"
    /><polygon points="799.875,250 711,250 799.875,200" /><polygon
      points="799.875,300 711,250 799.875,250"
    /><polygon points="888.75,300 799.875,250 888.75,250" /><polygon
      points="888.75,300 711,400 711,300"
    /><polygon points="888.75,400 888.75,300 1066.5,300" /><polygon
      points="1244.25,200 1422,300 1244.25,300"
    /><polygon points="1066.5,300 1066.5,200 1244.25,300" /><polygon
      points="1244.25,400 1244.25,300 1066.5,400"
    /><polygon points="1244.25,400 1422,400 1244.25,300" /><polygon
      points="711,200 355.5,0 355.5,200"
    /><polygon points="355.5,0 177.75,100 177.75,0" /><polygon
      points="177.75,0 0,100 177.75,100"
    /><polygon points="0,200 177.75,100 0,100" /><polygon
      points="177.75,100 355.5,200 355.5,100"
    /><polygon points="355.5,300 355.5,200 177.75,300" /><polygon
      points="0,200 0,300 177.75,200"
    /><polygon points="177.75,400 0,400 177.75,300" /><polygon
      points="177.75,300 355.5,400 355.5,300"
    /><polygon points="711,250 622.125,200 622.125,250" /><polygon
      points="533.25,200 622.125,200 533.25,250"
    /><polygon points="533.25,300 622.125,250 622.125,300" /><polygon
      points="711,300 711,250 622.125,250"
    /><polygon points="533.25,300 533.25,200 355.5,200" /><polygon
      points="355.5,300 355.5,400 533.25,400"
    /><polygon points="711,300 533.25,400 711,400" /><polygon
      points="711,400 711,500 533.25,400"
    /><polygon points="533.25,400 355.5,500 355.5,400" /><polygon
      points="533.25,600 355.5,600 533.25,500"
    /><polygon points="533.25,500 533.25,600 711,500" /><polygon
      points="355.5,400 355.5,500 177.75,500"
    /><polygon points="0,500 177.75,400 0,400" /><polygon
      points="177.75,500 177.75,600 0,500"
    /><polygon points="355.5,500 177.75,600 355.5,600" /><polygon
      points="355.5,700 177.75,700 355.5,600"
    /><polygon points="177.75,600 177.75,700 0,600" /><polygon
      points="177.75,700 177.75,800 0,700"
    /><polygon points="355.5,800 355.5,700 177.75,800" /><polygon
      points="711,600 533.25,700 711,700"
    /><polygon points="533.25,600 533.25,700 355.5,600" /><polygon
      points="533.25,800 355.5,800 533.25,700"
    /><polygon points="533.25,700 711,800 711,700" /><polygon
      points="1422,500 1422,400 1244.25,400"
    /><polygon points="1244.25,400 1244.25,500 1066.5,400" /><polygon
      points="1244.25,600 1244.25,500 1066.5,600"
    /><polygon points="1422,500 1244.25,600 1422,600" /><polygon
      points="888.75,500 1066.5,400 1066.5,500"
    /><polygon points="888.75,400 711,500 888.75,500" /><polygon
      points="711,600 888.75,500 888.75,600"
    /><polygon points="1066.5,500 888.75,500 1066.5,600" /><polygon
      points="1066.5,700 1066.5,600 888.75,600"
    /><polygon points="888.75,700 888.75,600 711,700" /><polygon
      points="888.75,800 888.75,700 711,700"
    /><polygon points="1066.5,800 1066.5,700 888.75,800" /><polygon
      points="1422,700 1244.25,600 1422,600"
    /><polygon points="1244.25,700 1066.5,600 1066.5,700" /><polygon
      points="1066.5,800 1244.25,800 1066.5,700"
    /><polygon points="1244.25,800 1422,700 1422,800" /></g><g
    fill="hsl(220, 62%, 45%)"
    strokeWidth="3"
    stroke="hsl(220, 43%, 13%)"
  /></svg>
