<svg xmlns="http://www.w3.org/2000/svg" version="1.1" xmlns:xlink="http://www.w3.org/1999/xlink" xmlns:svgjs="http://svgjs.dev/svgjs" viewBox="0 0 2400 800" opacity="1"><g fill="hsla(120, 61%, 50%, 1.00)" transform="matrix(1,0,0,1,8.247314453125,303.1126251220703)"><path d="M-10,10C47.63888888888889,16.25,153.47222222222223,49.583333333333336,266.6666666666667,40C379.86111111111114,30.416666666666664,422.2222222222223,-31.833333333333332,533.3333333333334,-36C644.4444444444445,-40.166666666666664,688.8888888888889,14.791666666666666,800,20C911.1111111111111,25.208333333333336,955.5555555555557,-13.5,1066.6666666666667,-11C1177.7777777777778,-8.5,1222.2222222222224,36.166666666666664,1333.3333333333335,32C1444.4444444444446,27.833333333333332,1488.888888888889,-31.416666666666668,1600,-31C1711.111111111111,-30.583333333333332,1755.5555555555557,30.666666666666668,1866.6666666666667,34C1977.7777777777778,37.333333333333336,2022.2222222222224,-14.583333333333334,2133.3333333333335,-15C2244.4444444444443,-15.416666666666666,2292.3611111111113,-54.45833333333334,2400,32C2507.6388888888887,118.45833333333334,3254.1666666666665,219.16666666666669,2650,400C2045.8333333333335,580.8333333333333,156.25,795.8333333333334,-500,900" transform="matrix(1,0,0,1,0,65)" opacity="NaN"></path></g></svg>