<svg
    id="visual"
    viewBox="0 0 900 600" 
    width="900" 
    height="600" 
    xmlns="http://www.w3.org/2000/svg" 
    xmlns:xlink="http://www.w3.org/1999/xlink" 
    version="1.1"
>
    <rect
        x="0" 
        y="0" 
        width="900" 
        height="600" 
        fill="#140021"
        opacity="0"
    >
    </rect>

    <path d="M488 0L354 0L354 86L374 86L374 171L456 171L456 257L394 257L394 343L486 343L486 429L506 429L506 514L473 514L473 600L0 600L0 514L0 514L0 429L0 429L0 343L0 343L0 257L0 257L0 171L0 171L0 86L0 86L0 0L0 0Z" fill="#140021">
    </path>
<!--     
    <path d="M314 0L257 0L257 86L344 86L344 171L351 171L351 257L269 257L269 343L350 343L350 429L369 429L369 514L216 514L216 600L0 600L0 514L0 514L0 429L0 429L0 343L0 343L0 257L0 257L0 171L0 171L0 86L0 86L0 0L0 0Z" fill="#7700c6">
    </path>
    
    <path d="M142 0L208 0L208 86L172 86L172 171L174 171L174 257L223 257L223 343L90 343L90 429L86 429L86 514L226 514L226 600L0 600L0 514L0 514L0 429L0 429L0 343L0 343L0 257L0 257L0 171L0 171L0 86L0 86L0 0L0 0Z" fill="#560090">
    </path> -->
</svg>