<svg xmlns="http://www.w3.org/2000/svg" version="1.1" xmlns:xlink="http://www.w3.org/1999/xlink" xmlns:svgjs="http://svgjs.dev/svgjs" viewBox="0 0 600 600"><path d="M154.94012451171875,158.08383178710938C157.4850336710612,147.30538940429688,159.28143056233725,142.51497650146484,169.31137084960938,137.42515563964844C179.3413111368815,132.33533477783203,200.59880574544272,130.5389200846354,215.11976623535156,127.54490661621094C229.6407267252604,124.55089314778645,242.8143793741862,122.15568542480469,256.4371337890625,119.46107482910156C270.0598882039388,116.76646423339844,287.5748545328776,110.17963790893555,296.8562927246094,111.37724304199219C306.1377309163411,112.57484817504883,306.2874399820964,121.556884765625,312.1257629394531,126.6467056274414C317.9640858968099,131.7365264892578,326.94611104329425,133.53293482462564,331.88623046875,141.91616821289062C336.82634989420575,150.2994016011556,344.31139119466144,165.26946004231772,341.7664794921875,176.94610595703125C339.22156778971356,188.62275187174478,321.8562825520833,201.94610341389975,316.61676025390625,211.97604370117188C311.3772379557292,222.005983988444,317.8143768310547,230.5389200846354,310.329345703125,237.12574768066406C302.8443145751953,243.71257527669272,283.8323237101237,249.550900777181,271.7065734863281,251.49700927734375C259.58082326253253,253.4431177775065,243.26346588134766,249.25150044759116,237.57484436035156,248.80239868164062C231.88622283935547,248.3532969156901,244.46106974283853,251.7964121500651,237.57484436035156,248.80239868164062C230.6886189778646,245.80838521321616,210.17964680989584,238.62274932861328,196.2574920654297,230.83831787109375C182.33533732096353,223.05388641357422,160.9281438191732,214.2215576171875,154.0419158935547,202.09580993652344C147.1556879679362,189.97006225585938,152.3952153523763,168.86227416992188,154.94012451171875,158.08383178710938C157.4850336710612,147.30538940429688,159.28143056233725,142.51497650146484,169.31137084960938,137.42515563964844" fill="url(&quot;#SvgjsLinearGradient1000&quot;)" transform="matrix(0.9974999999999999,0,0,-0.9974999999999999,54.16248270034794,481.1673073768616)"></path><defs><linearGradient id="SvgjsLinearGradient1000" gradientTransform="rotate(301, 0.5, 0.5)"><stop stop-color="hsl(120, 61%, 50%)" offset="0"></stop><stop stop-color="hsl(340, 45%, 80%)" offset="1"></stop></linearGradient></defs></svg>