<svg
    id="visual"
    viewBox="0 0 900 600"
    width="900"
    height="600"
    xmlns="http://www.w3.org/2000/svg"
    xmlns:xlink="http://www.w3.org/1999/xlink"
    version="1.1"
>
    <path d="M521 600L557 600L557 545L656 545L656 491L620 491L620 436L548 436L548 382L629 382L629 327L737 327L737 273L620 273L620 218L638 218L638 164L593 164L593 109L629 109L629 55L575 55L575 0L900 0L900 55L900 55L900 109L900 109L900 164L900 164L900 218L900 218L900 273L900 273L900 327L900 327L900 382L900 382L900 436L900 436L900 491L900 491L900 545L900 545L900 600L900 600Z" fill="#011222" opacity=".1"></path>
    
    <path d="M449 600L404 600L404 545L476 545L476 491L521 491L521 436L404 436L404 382L503 382L503 327L557 327L557 273L467 273L467 218L458 218L458 164L494 164L494 109L539 109L539 55L476 55L476 0L576 0L576 55L630 55L630 109L594 109L594 164L639 164L639 218L621 218L621 273L738 273L738 327L630 327L630 382L549 382L549 436L621 436L621 491L657 491L657 545L558 545L558 600L522 600Z" fill="#011222" opacity=".7"></path>
    
    <path d="M377 600L341 600L341 545L422 545L422 491L395 491L395 436L314 436L314 382L359 382L359 327L467 327L467 273L404 273L404 218L386 218L386 164L404 164L404 109L422 109L422 55L359 55L359 0L477 0L477 55L540 55L540 109L495 109L495 164L459 164L459 218L468 218L468 273L558 273L558 327L504 327L504 382L405 382L405 436L522 436L522 491L477 491L477 545L405 545L405 600L450 600Z" fill="#011222" opacity=".8"></path>
    
    <path d="M107 600L89 600L89 545L188 545L188 491L206 491L206 436L89 436L89 382L152 382L152 327L107 327L107 273L107 273L107 218L179 218L179 164L143 164L143 109L161 109L161 55L224 55L224 0L360 0L360 55L423 55L423 109L405 109L405 164L387 164L387 218L405 218L405 273L468 273L468 327L360 327L360 382L315 382L315 436L396 436L396 491L423 491L423 545L342 545L342 600L378 600Z" fill="#011222" opacity=".9"></path>
    
    <path d="M0 600L0 600L0 545L0 545L0 491L0 491L0 436L0 436L0 382L0 382L0 327L0 327L0 273L0 273L0 218L0 218L0 164L0 164L0 109L0 109L0 55L0 55L0 0L225 0L225 55L162 55L162 109L144 109L144 164L180 164L180 218L108 218L108 273L108 273L108 327L153 327L153 382L90 382L90 436L207 436L207 491L189 491L189 545L90 545L90 600L108 600Z" fill="#011222" opacity=".95"></path>
    
</svg>